<svg xmlns="http://www.w3.org/2000/svg" x="0" y="0" viewBox="0 0 787 787" xml:space="preserve"><style>path{fill:#0063a3}@media (prefers-color-scheme:dark){path{fill:#fff}}</style><path d="M80.9 601v186.1l161.8-93.4c-62.2-13.4-118.8-45.8-161.8-92.7zM241.5 90.9L80.9-1.7v185c42.8-46.5 98.9-78.7 160.6-92.4zM764 392.7l-161.8-93.4c19.2 60.9 19 126.3-.5 187.1L764 392.7zM187.4 139.7c23.2-5.2 71.4-.3 96.9 7 20.4-16.2 51.2-25.6 81.8-27.2-70.5-12.7-135.7 2.1-178.7 20.2zM495.7 478.2c-4-35.4-12.5-70.2-25.3-103.5-55.4 25-124 8.9-169.9-30.8-33.4 34.1-65.8 76.7-90.2 114.5 77.8 63.3 205.7 80 285.4 19.8zM167.9 464.4c-68.5-70.1-92.4-172.5-70.5-251.1-93.2 109.9-86.1 273 16.2 374.4 11.3-42.4 32-85.7 54.3-123.3zM457.6 344.9c-14.5-30.8-33.2-59.4-55.5-85.1-27.6 18.4-53.7 38.9-78.1 61.3 41.4 34.5 95.7 41.3 133.6 23.8zM406.5 216.9c17.8-12.9 42.4-26.8 60.1-33.3-43.8-44.4-114.4-43.2-145-23.9 31.4 13.9 60.1 33.3 84.9 57.2z" class="y3"/><path d="M192.9 486.9c-34.1 58.9-46.5 102.2-51.1 125.2 101.4 76.6 242 74 340.6-6.2 10.2-24.7 15.5-55.5 15.5-89.4-94 56-224 34.5-305-29.6zM484.8 325.3c30.2-31.7 24.1-85.6 1.2-116.6-14.1 4.8-43.6 21.9-56.3 33 21.7 25.5 40.2 53.6 55.1 83.6zM537 257.4c4.7 40.7-10.8 75.9-38.2 99.4 12 29.9 20.8 61 26.2 92.7 41.4-53.8 40.1-130.6 12-192.1zM301.5 297.3c24.2-22.4 50-42.9 77.2-61.5-24.8-22.6-53.8-40.3-85.4-52-25.3 34.5-17.4 79 8.2 113.5zM529.9 492.8c1.4 23.1-.7 49.3-3.4 70 47.3-60.3 63.3-135 57.8-193.2-5.7 49-23.6 90-54.4 123.2zM261.5 174c-34.9-8.5-75.6-8.9-109.7.7-54.3 77-29.1 189.9 34.2 260.6 24.1-36.5 59-82.1 92-115.3-32.2-39.9-45-101.7-16.5-146z" class="y3"/></svg>
