<svg xmlns="http://www.w3.org/2000/svg" xmlns:xlink="http://www.w3.org/1999/xlink" viewBox="0 0 816.82 520.18"><defs><linearGradient id="linear-gradient" x1="657.65" x2="663.88" y1="-203.96" y2="-190.11" gradientTransform="matrix(1.04 -.12 .01 .96 -116.9 375.59)" gradientUnits="userSpaceOnUse"><stop offset="0" stop-color="#ffbe00"/><stop offset="1" stop-color="#e5a913"/></linearGradient><linearGradient id="linear-gradient-2" x1="798.58" x2="802.49" y1="-117.74" y2="-106.05" xlink:href="#linear-gradient"/><linearGradient id="linear-gradient-3" x1="826.03" x2="831.72" y1="57.84" y2="71.15" xlink:href="#linear-gradient"/><linearGradient id="linear-gradient-4" x1="842.35" x2="848.31" y1="-34.3" y2="-22.29" xlink:href="#linear-gradient"/><linearGradient id="linear-gradient-5" x1="330.22" x2="335.18" y1="-275.37" y2="-262.59" xlink:href="#linear-gradient"/><linearGradient id="linear-gradient-6" x1="320.7" x2="323.68" y1="-186.37" y2="-169.54" xlink:href="#linear-gradient"/><linearGradient id="linear-gradient-7" x1="327.71" x2="331.99" y1="-229.24" y2="-215.39" xlink:href="#linear-gradient"/><style>.cls-4{opacity:.1}.cls-2,.cls-4{fill:#54545c}.cls-3{fill:#ffbe00}.cls-5{fill:#cfd0d7}.cls-6{fill:#f2f3f6}.cls-7{fill:#282c2f}.cls-8{fill:#fff}.cls-9{fill:#eaeaef}.cls-10{fill:#9d9da6}.cls-11{fill:#009ad9}.cls-12{fill:#d0d0d7}.cls-14{fill:#005f9e}.cls-19{fill:#c81922}.cls-20{fill:#1dae4b}</style></defs><g id="Layer_2" data-name="Layer 2"><g id="Computer"><g id="UI"><g opacity=".1"><path d="M7 306c-5.45 3.56-6.4 8.15-1.33 10.28l59.13 24.83c5.08 2.13 13.41.65 18.86-2.91L218.57 250c5.45-3.57 6.4-8.15 1.33-10.29l-59.13-24.83c-5.07-2.13-13.41-.64-18.86 2.92z" class="cls-2"/><path d="M5.91 305.5l134.89-88.21c6.32-4.13 15.61-5.54 21.15-3.22l59.13 24.83c5.54 2.33 4.93 7.39-1.39 11.52L84.8 338.63c-6.32 4.14-15.61 5.55-21.15 3.22L4.52 317c-5.52-2.31-4.93-7.37 1.39-11.5zm153.68-89.89c-4.29-1.8-11.57-.65-16.56 2.62L8.14 306.44c-5 3.27-5.55 7.24-1.26 9L66 340.31c4.29 1.8 11.57.66 16.57-2.61l134.88-88.21c5-3.27 5.55-7.24 1.26-9z" class="cls-2"/></g><path d="M221.67 310.7l-80-33.41a7.32 7.32 0 01-4.27-5.29c-.2-2 1.4-2.95 3.56-2l80 33.41a7.32 7.32 0 014.27 5.32c.2 1.95-1.4 2.87-3.56 1.97z" class="cls-3"/><path d="M292.25 253.23L129.51 362.47c-3.95 2.6-4.36 5.88-.89 7.31l361.62 149.73c3.47 1.44 9.5.49 13.46-2.1l162.74-109.24z" class="cls-4"/><path d="M664.17 159.44a11 11 0 00-6.35-9.24L296.25.49a4.91 4.91 0 00-4.07-.09l-.24.14-.13.08-4.6 2.63 2.89.25a6.86 6.86 0 00-.08 1l2.24 234.75 369 152.79-.29 4.12-5.15 3.68L287.5 247.37 129.1 352.21a12.76 12.76 0 00-1 .77l-1-1-1.85-1.73.06 6.24v.93c0 1.17 1.28 1.48 2.86 2.13l361.66 149.7c3.46 1.44 9.5.49 13.46-2.1L643.84 414l18.32-12a9 9 0 004.26-7.44v-.39z" class="cls-5"/><path d="M661 395.92L288.19 241.57 286 8c0-3.52 2.26-5.41 5.13-4.22l362.38 150c2.87 1.19 5.22 5 5.26 8.53z" class="cls-6"/><path d="M661.66 396.94L287.5 242 285.26 7.26c0-3.66 2.76-5.47 6.23-4l361.57 149.7a11 11 0 016.35 9.25zM288.87 241.13L660.26 394.9 658 161.61a8.59 8.59 0 00-5-7.21L291.5 4.69c-2.7-1.12-4.88.29-4.85 3.14z" class="cls-5"/><path d="M489.68 502.79L127.89 353c-3.08-1.28-2.73-4.19.8-6.51L288.55 242l373 154.43-159.89 104.48c-3.53 2.31-8.89 3.15-11.98 1.88z" class="cls-6"/><path d="M493.15 503.91a9.72 9.72 0 01-3.68-.63l-361.78-149.8a3.5 3.5 0 01-2.42-2.78c-.15-1.56 1-3.26 3.13-4.66l160.09-104.66L662.65 396.3l-.85.55L502 501.36a16.89 16.89 0 01-8.85 2.55zm-3.27-1.62c2.94 1.22 8.09.4 11.48-1.83l159-103.95L288.6 242.58 129 346.93c-1.76 1.16-2.75 2.53-2.65 3.67a2.57 2.57 0 001.77 1.9z" class="cls-5"/><path d="M292.13 273.8l-15.48-6.41c-.66-.28-.59-.9.18-1.4l17.68-11.6a3.2 3.2 0 012.59-.41l15.47 6.41c.67.28.59.91-.17 1.41l-17.69 11.59a3.18 3.18 0 01-2.58.41z" class="cls-6"/><path d="M292.89 274.46a2.5 2.5 0 01-1-.17l-15.47-6.41a1.14 1.14 0 01-.78-.94 1.59 1.59 0 01.86-1.4l17.69-11.6a3.65 3.65 0 013.08-.45l15.48 6.41a1.14 1.14 0 01.77 1 1.57 1.57 0 01-.86 1.39L295 273.84a4.05 4.05 0 01-2.11.62zm-16.16-7.63l.13.07 15.47 6.41a2.69 2.69 0 002.09-.36l17.69-11.6c.3-.2.37-.36.38-.4l-.12-.07-15.48-6.4a2.65 2.65 0 00-2.09.35l-17.68 11.6c-.3.2-.38.36-.39.4z" class="cls-5"/><path d="M313.37 282.59l-15.48-6.4c-.66-.28-.58-.91.18-1.41l17.68-11.6a3.16 3.16 0 012.59-.4l15.47 6.41c.67.27.59.9-.17 1.4L316 282.19a3.16 3.16 0 01-2.63.4z" class="cls-6"/><path d="M314.13 283.26a2.7 2.7 0 01-1-.17l-15.47-6.41a1.17 1.17 0 01-.78-.95 1.61 1.61 0 01.86-1.39l17.69-11.6a3.63 3.63 0 013.09-.45l15.47 6.4a1.19 1.19 0 01.78.95 1.6 1.6 0 01-.87 1.4l-17.68 11.59a4 4 0 01-2.09.63zM298 275.63a.52.52 0 00.12.06l15.47 6.41a2.65 2.65 0 002.09-.36l17.69-11.59c.3-.2.38-.36.38-.41a.52.52 0 00-.12-.06l-15.47-6.41a2.69 2.69 0 00-2.09.36l-17.69 11.6c-.3.19-.38.35-.38.4z" class="cls-5"/><path d="M334.61 291.39L319.14 285c-.67-.27-.59-.9.17-1.4L337 272a3.18 3.18 0 012.58-.41l15.48 6.41c.66.28.59.91-.18 1.41L337.2 291a3.2 3.2 0 01-2.59.39z" class="cls-6"/><path d="M335.38 292.05a2.47 2.47 0 01-1-.17l-15.48-6.41a1.16 1.16 0 01-.78-.94 1.6 1.6 0 01.87-1.4l17.68-11.6a3.74 3.74 0 013.09-.45l15.47 6.41a1.16 1.16 0 01.78.95 1.59 1.59 0 01-.86 1.39l-17.69 11.6a4 4 0 01-2.08.62zm-.57-1.15a2.72 2.72 0 002.1-.36l17.68-11.6a.86.86 0 00.39-.4l-.13-.07-15.47-6.4a2.61 2.61 0 00-2.09.36L319.6 284c-.3.2-.37.36-.38.4a.36.36 0 00.12.07z" class="cls-5"/><path d="M355.85 300.18l-15.47-6.4c-.67-.28-.59-.91.17-1.41l17.69-11.59a3.16 3.16 0 012.59-.41l15.47 6.41c.67.27.59.9-.17 1.4l-17.69 11.6a3.16 3.16 0 01-2.59.4z" class="cls-6"/><path d="M356.62 300.85a2.66 2.66 0 01-1-.17l-15.47-6.41a1.16 1.16 0 01-.78-.95 1.59 1.59 0 01.86-1.39l17.77-11.6a3.61 3.61 0 013.08-.45l15.47 6.4a1.17 1.17 0 01.78 1 1.59 1.59 0 01-.86 1.4l-17.69 11.6a4 4 0 01-2.16.57zm-16.16-7.63l.12.07 15.48 6.4a2.62 2.62 0 002.09-.36l17.68-11.59c.3-.2.38-.36.39-.4a.58.58 0 00-.12-.07l-15.48-6.41a2.7 2.7 0 00-2.09.36l-17.68 11.6a.86.86 0 00-.39.4z" class="cls-5"/><path d="M377.1 309l-15.48-6.41c-.66-.27-.59-.9.18-1.4l17.68-11.6a3.16 3.16 0 012.59-.4l15.47 6.4c.67.28.59.91-.17 1.41l-17.69 11.59a3.14 3.14 0 01-2.58.41z" class="cls-6"/><path d="M377.86 309.64a2.5 2.5 0 01-1-.17l-15.47-6.4a1.17 1.17 0 01-.78-.95 1.59 1.59 0 01.86-1.4l17.69-11.59a3.65 3.65 0 013.08-.46l15.48 6.41a1.14 1.14 0 01.77.95 1.57 1.57 0 01-.86 1.39L380 309a4.05 4.05 0 01-2.14.64zM361.7 302a.52.52 0 00.13.07l15.47 6.41a2.69 2.69 0 002.09-.36l17.69-11.6c.29-.19.37-.35.38-.4l-.12-.06-15.48-6.41a2.66 2.66 0 00-2.09.36l-17.68 11.59c-.3.21-.38.4-.39.4z" class="cls-5"/><path d="M398.34 317.78l-15.48-6.41c-.66-.28-.58-.91.18-1.41l17.68-11.59a3.21 3.21 0 012.59-.41l15.47 6.41c.67.27.59.9-.17 1.4l-17.68 11.6a3.21 3.21 0 01-2.59.41z" class="cls-6"/><path d="M399.1 318.44a2.7 2.7 0 01-1-.17l-15.47-6.41a1.16 1.16 0 01-.78-.95 1.6 1.6 0 01.87-1.39l17.68-11.6a3.67 3.67 0 013.09-.45l15.51 6.41a1.16 1.16 0 01.78.94 1.6 1.6 0 01-.87 1.4l-17.68 11.6a4 4 0 01-2.13.62zm-16.1-7.63l.12.07 15.47 6.4a2.61 2.61 0 002.09-.36l17.69-11.59c.3-.2.38-.36.38-.4l-.12-.07-15.47-6.41a2.69 2.69 0 00-2.09.36l-17.69 11.6c-.3.2-.38.36-.38.4z" class="cls-5"/><path d="M419.58 326.57l-15.47-6.41c-.67-.27-.59-.9.17-1.4l17.72-11.6a3.14 3.14 0 012.58-.4l15.48 6.4c.66.28.59.91-.18 1.41l-17.68 11.6a3.16 3.16 0 01-2.62.4z" class="cls-6"/><path d="M420.35 327.23a2.47 2.47 0 01-1-.17l-15.48-6.4a1.16 1.16 0 01-.77-1 1.57 1.57 0 01.86-1.4l17.68-11.59a3.68 3.68 0 013.09-.46l15.47 6.41a1.17 1.17 0 01.78.95 1.58 1.58 0 01-.86 1.39l-17.69 11.6a4 4 0 01-2.08.67zm-16.16-7.62l.12.06 15.48 6.41a2.7 2.7 0 002.09-.36l17.68-11.6c.3-.19.38-.35.39-.4a.87.87 0 00-.13-.06l-15.47-6.41a2.65 2.65 0 00-2.09.36l-17.69 11.59c-.3.2-.37.36-.38.41z" class="cls-5"/><path d="M440.82 335.37L425.35 329c-.67-.28-.59-.91.17-1.41L443.21 316a3.2 3.2 0 012.59-.41l15.47 6.41c.67.28.59.9-.17 1.4L443.41 335a3.2 3.2 0 01-2.59.37z" class="cls-6"/><path d="M441.59 336a2.66 2.66 0 01-1-.17l-15.47-6.41a1.16 1.16 0 01-.78-.95 1.57 1.57 0 01.86-1.39l17.69-11.6a3.64 3.64 0 013.08-.45l15.47 6.41a1.14 1.14 0 01.78.94 1.59 1.59 0 01-.86 1.4l-17.69 11.6a4 4 0 01-2.08.62zm-.56-1.16a2.65 2.65 0 002.09-.35l17.68-11.6c.3-.2.38-.36.39-.4l-.12-.07-15.48-6.42a2.7 2.7 0 00-2.09.36L425.82 328c-.3.2-.38.36-.39.4l.12.07z" class="cls-5"/><path d="M462.07 344.16l-15.48-6.41c-.66-.27-.59-.9.18-1.4l17.68-11.6a3.16 3.16 0 012.59-.4l15.47 6.4c.67.28.59.91-.17 1.41l-17.69 11.6a3.14 3.14 0 01-2.58.4z" class="cls-6"/><path d="M462.83 344.83a2.5 2.5 0 01-1-.18l-15.47-6.4a1.17 1.17 0 01-.78-.95 1.59 1.59 0 01.86-1.4l17.69-11.59a3.65 3.65 0 013.08-.46l15.48 6.41a1.16 1.16 0 01.77.95 1.57 1.57 0 01-.86 1.4L465 344.2a4 4 0 01-2.17.63zm-16.16-7.63a.87.87 0 00.13.06l15.47 6.41a2.65 2.65 0 002.09-.36l17.69-11.6c.3-.19.37-.35.38-.4l-.12-.06-15.48-6.41a2.66 2.66 0 00-2.09.36l-17.68 11.6c-.3.19-.38.35-.39.4z" class="cls-5"/><path d="M483.31 353l-15.47-6.41c-.67-.28-.59-.9.17-1.4l17.68-11.6a3.21 3.21 0 012.59-.41l15.47 6.41c.67.28.59.91-.17 1.41l-17.68 11.55a3.21 3.21 0 01-2.59.45z" class="cls-6"/><path d="M484.07 353.62a2.7 2.7 0 01-1-.17L467.63 347a1.17 1.17 0 01-.78-.94 1.6 1.6 0 01.87-1.4l17.68-11.6a3.65 3.65 0 013.08-.45l15.52 6.45a1.17 1.17 0 01.78.94 1.6 1.6 0 01-.87 1.4L486.19 353a4.05 4.05 0 01-2.12.62zM467.92 346l.12.07 15.47 6.4a2.64 2.64 0 002.09-.35l17.69-11.6c.3-.2.38-.36.38-.4l-.12-.07-15.47-6.4a2.64 2.64 0 00-2.08.35l-17.69 11.6c-.3.2-.38.36-.38.4z" class="cls-5"/><path d="M504.55 361.75l-15.47-6.4c-.67-.28-.59-.91.17-1.41l17.69-11.6a3.14 3.14 0 012.58-.4l15.48 6.41c.66.27.59.9-.18 1.4l-17.68 11.6a3.16 3.16 0 01-2.59.4z" class="cls-6"/><path d="M505.32 362.42a2.47 2.47 0 01-1-.18l-15.48-6.4a1.16 1.16 0 01-.77-.95 1.55 1.55 0 01.86-1.39l17.68-11.6a3.63 3.63 0 013.09-.45l15.47 6.4a1.17 1.17 0 01.78.95 1.59 1.59 0 01-.86 1.4l-17.69 11.59a3.94 3.94 0 01-2.08.63zm-16.16-7.63l.12.06 15.48 6.41a2.66 2.66 0 002.09-.36l17.68-11.59c.3-.2.38-.36.39-.41a.87.87 0 00-.13-.06l-15.47-6.41a2.69 2.69 0 00-2.09.36l-17.69 11.6c-.29.19-.37.35-.38.4z" class="cls-5"/><path d="M525.79 370.55l-15.47-6.41c-.67-.27-.59-.9.17-1.4l17.69-11.6a3.2 3.2 0 012.59-.41l15.47 6.41c.67.28.59.91-.17 1.41l-17.69 11.59a3.2 3.2 0 01-2.59.41z" class="cls-6"/><path d="M526.56 371.21a2.47 2.47 0 01-1-.17l-15.47-6.41a1.14 1.14 0 01-.78-.94 1.59 1.59 0 01.86-1.4l17.69-11.6a3.64 3.64 0 013.08-.45l15.47 6.41a1.16 1.16 0 01.78 1 1.59 1.59 0 01-.86 1.39l-17.69 11.6a4 4 0 01-2.08.57zm-16.16-7.63l.12.07 15.48 6.41a2.69 2.69 0 002.09-.36l17.68-11.6c.3-.2.38-.36.39-.4l-.12-.07-15.48-6.4a2.62 2.62 0 00-2.09.36l-17.68 11.59c-.3.2-.38.36-.39.4z" class="cls-5"/><path d="M547 379.34l-15.48-6.4c-.66-.28-.59-.91.18-1.41l17.68-11.6a3.16 3.16 0 012.59-.4l15.47 6.41c.67.27.59.9-.17 1.4l-17.69 11.6a3.14 3.14 0 01-2.58.4z" class="cls-6"/><path d="M547.8 380a2.7 2.7 0 01-1-.17l-15.47-6.41a1.16 1.16 0 01-.78-.95 1.59 1.59 0 01.86-1.39l17.69-11.6a3.61 3.61 0 013.08-.45l15.48 6.4a1.16 1.16 0 01.77.95 1.57 1.57 0 01-.86 1.4l-17.68 11.59a4 4 0 01-2.09.63zm-16.16-7.63a.87.87 0 00.13.06l15.47 6.41a2.65 2.65 0 002.09-.36L567 366.9a.93.93 0 00.38-.4.58.58 0 00-.12-.07L551.8 360a2.7 2.7 0 00-2.09.36L532 372c-.3.19-.38.35-.39.4z" class="cls-5"/><path d="M568.28 388.14l-15.47-6.41c-.67-.27-.59-.9.17-1.4l17.68-11.6a3.16 3.16 0 012.59-.4l15.47 6.4c.67.28.59.91-.17 1.41l-17.68 11.59a3.17 3.17 0 01-2.59.41z" class="cls-6"/><path d="M569 388.8a2.65 2.65 0 01-1-.17l-15.47-6.4a1.19 1.19 0 01-.78-1 1.61 1.61 0 01.86-1.4l17.69-11.6a3.7 3.7 0 013.09-.45l15.47 6.41a1.17 1.17 0 01.78.95 1.6 1.6 0 01-.87 1.39l-17.68 11.6a4.06 4.06 0 01-2.09.67zm-16.15-7.63a.92.92 0 00.13.07l15.47 6.41a2.69 2.69 0 002.09-.36l17.69-11.6c.3-.19.38-.36.38-.4l-.12-.07-15.47-6.4a2.61 2.61 0 00-2.09.36l-17.69 11.59c-.3.2-.38.36-.39.4z" class="cls-5"/><path d="M589.52 396.93l-15.47-6.4c-.67-.28-.59-.91.17-1.41l17.69-11.59a3.14 3.14 0 012.58-.41l15.51 6.41c.66.27.59.9-.18 1.4l-17.68 11.6a3.16 3.16 0 01-2.62.4z" class="cls-6"/><path d="M590.29 397.6a2.66 2.66 0 01-1-.17L573.84 391a1.14 1.14 0 01-.77-.95 1.57 1.57 0 01.86-1.39l17.68-11.6a3.63 3.63 0 013.09-.45l15.47 6.4a1.17 1.17 0 01.78 1 1.59 1.59 0 01-.86 1.4L592.4 397a4 4 0 01-2.11.6zm-16.16-7.6l.12.07 15.48 6.4a2.61 2.61 0 002.09-.36l17.68-11.59c.3-.2.38-.36.39-.4a.52.52 0 00-.13-.07l-15.47-6.41a2.69 2.69 0 00-2.09.36l-17.69 11.6c-.3.19-.37.36-.38.4z" class="cls-5"/><path d="M610.76 405.73l-15.47-6.41c-.67-.27-.59-.9.17-1.4l17.69-11.6a3.16 3.16 0 012.59-.4l15.47 6.4c.67.28.59.91-.17 1.41l-17.69 11.59a3.16 3.16 0 01-2.59.41z" class="cls-6"/><path d="M611.53 406.39a2.47 2.47 0 01-1-.17l-15.47-6.4a1.17 1.17 0 01-.78-.95 1.59 1.59 0 01.86-1.4l17.69-11.59a3.65 3.65 0 013.08-.46l15.47 6.41a1.16 1.16 0 01.78.95 1.58 1.58 0 01-.86 1.39l-17.69 11.6a4 4 0 01-2.08.62zm-16.16-7.62a.87.87 0 00.13.06l15.5 6.41a2.7 2.7 0 002.09-.36l17.68-11.6c.3-.19.38-.35.39-.4l-.12-.06-15.48-6.41a2.65 2.65 0 00-2.09.36l-17.68 11.59c-.3.2-.38.36-.39.41z" class="cls-5"/><path d="M227.16 325.82l-24.42-10.11c-.66-.27-.59-.9.18-1.4l17.68-11.6a3.16 3.16 0 012.59-.4l24.42 10.11c.66.27.59.9-.17 1.4l-17.69 11.6a3.16 3.16 0 01-2.59.4z" class="cls-6"/><path d="M227.93 326.49a2.66 2.66 0 01-1-.17l-24.42-10.11a1.19 1.19 0 01-.78-.95 1.59 1.59 0 01.86-1.4l17.69-11.59a3.65 3.65 0 013.08-.46l24.42 10.11a1.17 1.17 0 01.78.95 1.59 1.59 0 01-.86 1.4L230 325.86a3.94 3.94 0 01-2.07.63zm-25.11-11.34a.92.92 0 00.13.07l24.42 10.11a2.65 2.65 0 002.09-.36l17.68-11.59c.3-.2.38-.36.39-.41a.87.87 0 00-.13-.06L223 302.8a2.65 2.65 0 00-2.09.36l-17.69 11.59c-.3.2-.38.36-.39.4z" class="cls-5"/><path d="M506.8 441.61l-273.87-113.4c-.67-.27-.59-.9.17-1.4l17.69-11.6a3.2 3.2 0 012.59-.41l273.87 113.4c.66.28.59.91-.18 1.41l-17.68 11.59a3.2 3.2 0 01-2.59.41z" class="cls-6"/><path d="M507.56 442.27a2.45 2.45 0 01-1-.17L232.73 328.7a1.14 1.14 0 01-.78-.94 1.59 1.59 0 01.86-1.4l17.69-11.6a3.64 3.64 0 013.08-.45l273.87 113.4a1.16 1.16 0 01.78 1 1.59 1.59 0 01-.86 1.39l-17.69 11.6a4 4 0 01-2.12.57zM233 327.65l.12.07L507 441.12a2.72 2.72 0 002.1-.36l17.68-11.6c.3-.2.38-.36.39-.4l-.13-.07L253.17 315.3a2.61 2.61 0 00-2.09.36l-17.68 11.59c-.3.2-.4.36-.4.4z" class="cls-5"/><path d="M537.15 454.17l-24.42-10.11c-.66-.27-.59-.9.18-1.4l17.68-11.6a3.16 3.16 0 012.59-.4l24.42 10.11c.66.27.59.9-.18 1.4l-17.68 11.6a3.16 3.16 0 01-2.59.4z" class="cls-6"/><path d="M537.92 454.84a2.66 2.66 0 01-1-.17l-24.42-10.11a1.17 1.17 0 01-.78-.95 1.59 1.59 0 01.86-1.4l17.69-11.59a3.61 3.61 0 013.08-.45l24.42 10.1a1.17 1.17 0 01.78 1 1.59 1.59 0 01-.86 1.4L540 454.22a4 4 0 01-2.08.62zm-.56-1.16a2.62 2.62 0 002.09-.36l17.68-11.59c.3-.2.38-.36.39-.4a.52.52 0 00-.13-.07L533 431.15a2.72 2.72 0 00-2.1.36l-17.68 11.6c-.3.19-.38.35-.39.4l.13.06z" class="cls-5"/><path d="M280.18 295.83L251.58 284c-.66-.28-.58-.91.18-1.41L269.44 271a3.17 3.17 0 012.59-.41l28.59 11.84c.67.28.59.9-.17 1.4l-17.69 11.6a3.18 3.18 0 01-2.58.4z" class="cls-6"/><path d="M280.94 296.49a2.7 2.7 0 01-1-.17l-28.59-11.84a1.17 1.17 0 01-.78-1 1.61 1.61 0 01.86-1.39l17.69-11.6a3.61 3.61 0 013.08-.45l28.6 11.84a1.17 1.17 0 01.78.94 1.6 1.6 0 01-.87 1.4l-17.68 11.6a4.05 4.05 0 01-2.09.67zm-.56-1.16a2.64 2.64 0 002.09-.35l17.69-11.6c.3-.2.37-.36.38-.4l-.12-.07-28.59-11.84a2.69 2.69 0 00-2.09.36L252.05 283a.86.86 0 00-.39.4l.13.07z" class="cls-5"/><path d="M534.12 401L286 298.22c-.67-.28-.59-.91.17-1.41l17.68-11.6a3.16 3.16 0 012.59-.4l248.12 102.75c.67.28.59.91-.17 1.41l-17.68 11.6a3.17 3.17 0 01-2.59.43z" class="cls-6"/><path d="M534.88 401.63a2.5 2.5 0 01-1-.17L285.74 298.71a1.17 1.17 0 01-.78-.95 1.6 1.6 0 01.87-1.4l17.68-11.59a3.63 3.63 0 013.09-.45l248.17 102.75a1.19 1.19 0 01.78.95 1.59 1.59 0 01-.87 1.39L537 401a4.05 4.05 0 01-2.12.63zM286 297.66l.12.06 248.2 102.76a2.69 2.69 0 002.09-.36l17.69-11.6c.3-.19.37-.35.38-.4a.52.52 0 00-.12-.06L306.19 285.3a2.69 2.69 0 00-2.09.36l-17.69 11.6c-.3.19-.38.35-.38.4z" class="cls-5"/><path d="M585.55 422.27l-44.69-18.51c-.67-.28-.59-.9.17-1.4l17.68-11.6a3.21 3.21 0 012.59-.41l44.7 18.51c.67.27.59.9-.17 1.4l-17.69 11.6a3.18 3.18 0 01-2.59.41z" class="cls-6"/><path d="M586.31 422.93a2.7 2.7 0 01-1-.17l-44.69-18.51a1.17 1.17 0 01-.78-.94 1.6 1.6 0 01.87-1.4l17.68-11.6a3.67 3.67 0 013.09-.45l44.69 18.51a1.13 1.13 0 01.77.94 1.57 1.57 0 01-.86 1.4l-17.68 11.6a4.05 4.05 0 01-2.09.62zm-.56-1.16a2.61 2.61 0 002.09-.36l17.69-11.59c.3-.2.37-.36.38-.4a.58.58 0 00-.12-.07l-44.69-18.5a2.61 2.61 0 00-2.09.36l-17.69 11.59c-.3.2-.38.36-.38.4l.12.07z" class="cls-5"/><path d="M264.84 315.45l-37.53-15.54c-.67-.28-.59-.91.17-1.41l17.68-11.59a3.21 3.21 0 012.59-.41l37.54 15.5c.66.28.59.91-.18 1.41l-17.68 11.6a3.16 3.16 0 01-2.59.44z" class="cls-6"/><path d="M265.61 316.11a2.47 2.47 0 01-1-.17L227.1 300.4a1.17 1.17 0 01-.78-.95 1.6 1.6 0 01.87-1.39l17.68-11.6A3.67 3.67 0 01248 286l37.53 15.54a1.16 1.16 0 01.78.95 1.58 1.58 0 01-.86 1.39l-17.69 11.6a4 4 0 01-2.15.63zm-38.22-16.76l.12.07L265.05 315a2.7 2.7 0 002.09-.36L284.82 303c.3-.19.38-.35.39-.4a.87.87 0 00-.13-.06L247.55 287a2.72 2.72 0 00-2.1.36L227.77 299c-.3.2-.38.36-.38.4z" class="cls-5"/><path d="M497.54 411.8l-226.93-94c-.67-.28-.59-.91.17-1.41l17.69-11.59a3.2 3.2 0 012.59-.41l226.93 94c.66.28.59.91-.18 1.41l-17.68 11.59a3.17 3.17 0 01-2.59.41z" class="cls-6"/><path d="M498.3 412.46a2.45 2.45 0 01-1-.17l-226.93-94a1.16 1.16 0 01-.78-.94 1.57 1.57 0 01.86-1.4l17.69-11.6a3.64 3.64 0 013.08-.45l226.93 94a1.16 1.16 0 01.78 1 1.61 1.61 0 01-.86 1.39l-17.69 11.6a4 4 0 01-2.08.57zm-227.61-95.18l.12.07 226.93 94a2.69 2.69 0 002.09-.36l17.69-11.6a.86.86 0 00.39-.4l-.13-.06-226.93-94a2.7 2.7 0 00-2.09.36l-17.68 11.6c-.3.2-.38.36-.39.4z" class="cls-5"/><path d="M561.27 438.19l-57-23.6c-.67-.28-.59-.91.17-1.41l17.69-11.59a3.18 3.18 0 012.58-.41l57 23.6c.67.28.59.9-.17 1.4l-17.69 11.6a3.18 3.18 0 01-2.58.41z" class="cls-6"/><path d="M562 438.85a2.7 2.7 0 01-1-.17l-57-23.6a1.17 1.17 0 01-.78-.95 1.6 1.6 0 01.87-1.39l17.68-11.6a3.74 3.74 0 013.09-.45l57 23.6a1.17 1.17 0 01.78.94 1.6 1.6 0 01-.87 1.4l-17.68 11.6a4.05 4.05 0 01-2.09.62zM504.36 414l.12.07 57 23.59a2.61 2.61 0 002.09-.36l17.69-11.59c.3-.2.37-.36.38-.4l-.12-.07-57-23.6a2.69 2.69 0 00-2.09.36l-17.69 11.6c-.3.2-.37.36-.38.4z" class="cls-5"/><path d="M356 433.76l-91.71-38c-.6-.24-.53-.81.15-1.26l39.37-25.81a2.82 2.82 0 012.32-.36l91.71 38c.6.25.53.81-.15 1.26l-39.37 25.81a2.83 2.83 0 01-2.32.36z" class="cls-6"/><path d="M356.7 434.41a2.23 2.23 0 01-.88-.16l-91.72-38a1.13 1.13 0 01-.73-.9 1.49 1.49 0 01.8-1.3l39.37-25.81a3.32 3.32 0 012.81-.41l91.71 38a1.11 1.11 0 01.74.9 1.49 1.49 0 01-.8 1.3l-39.37 25.81a3.62 3.62 0 01-1.93.57zm-.48-1.14a2.33 2.33 0 001.83-.32l39.36-25.81a.85.85 0 00.31-.3h-.06l-91.72-38a2.31 2.31 0 00-1.82.32L264.76 395a1 1 0 00-.31.29h.06l91.72 38z" class="cls-5"/><path d="M651.43 382.14l-353.9-146.53a2.09 2.09 0 01-1.11-1.81l-2.08-217.47c0-.76.48-1.16 1.1-.91L649.32 162a2.1 2.1 0 011.12 1.81l2.08 217.48c0 .71-.52 1.1-1.09.85z" class="cls-7"/><path d="M643.28 286.29L536.55 242.1a2.83 2.83 0 01-1.49-2.43l-.94-98.2c0-1 .63-1.51 1.43-1.18l106.76 44.2a2.82 2.82 0 011.5 2.43l.94 98.17c.01 1-.65 1.54-1.47 1.2zM410.51 189.91L303.8 145.73a2.86 2.86 0 01-1.51-2.45l-.94-98.17c0-1 .64-1.53 1.45-1.19l106.74 44.19a2.84 2.84 0 011.51 2.45l.95 98.14c0 1.01-.67 1.55-1.49 1.21z" class="cls-8"/><path d="M411.34 121.67L301.65 76.25l-.3-31.12c0-1 .65-1.54 1.47-1.2l106.73 44.19a2.8 2.8 0 011.5 2.43z" class="cls-9"/><path d="M650.6 180.74L294.5 33.3l-.16-17c0-.76.48-1.16 1.1-.91L649.32 162a2.11 2.11 0 011.12 1.82z" class="cls-10"/><path d="M643.6 166.64l-7.14-2.95-.01-1.08 7.14 2.96.01 1.07zM643.63 169.26l-7.14-2.96-.01-1.07 7.14 2.95.01 1.08zM643.65 171.88l-7.14-2.96-.01-1.08 7.14 2.96.01 1.08z" class="cls-8"/><path d="M348.98 108.13l-42.13-17.44-.07-6.97 42.14 17.45.06 6.96z" class="cls-11"/><ellipse cx="315.34" cy="136.73" class="cls-12" rx="5.98" ry="9.05" transform="rotate(-35.72 315.33 136.736)"/><path d="M362.05 154.81l-35.09-14.53-.03-3.66 35.08 14.53.04 3.66zM362.11 160.99l-35.09-14.52-.03-3.67 35.08 14.53.04 3.66z" class="cls-9"/><path d="M344.72 116.64L306.94 101l-.04-4.94 37.77 15.64.05 4.94zM396.48 138.07l-49.2-20.37-.05-4.94 49.2 20.37.05 4.94z" class="cls-12"/><path d="M403.72 147.75l-96.71-40.05-.04-3.82 96.72 40.04.03 3.83zM403.83 159.6l-96.71-40.04-.04-3.83 96.72 40.05.03 3.82zM321.93 115.98l81.81 33.87.04 3.83-81.81-33.88-.04-3.82zM307.03 109.81l12.29 5.09.04 3.82-12.3-5.09-.03-3.82z" class="cls-9"/><path d="M526.89 238.09l-106.67-44.16a2.87 2.87 0 01-1.53-2.48l-.94-98.13c0-1 .65-1.54 1.46-1.2l106.7 44.18a2.85 2.85 0 011.53 2.48l.94 98.09c.01 1.02-.66 1.57-1.49 1.22z" class="cls-8"/><path d="M527.74 169.86l-109.69-45.42-.3-31.12c0-1 .65-1.54 1.46-1.2l106.73 44.19a2.82 2.82 0 011.5 2.43z" class="cls-10"/><path d="M465.38 156.33l-42.14-17.45-.07-6.97 42.14 17.45.07 6.97z" class="cls-11"/><ellipse cx="431.74" cy="184.92" class="cls-10" rx="5.98" ry="9.05" transform="rotate(-35.72 431.709 184.924)"/><path d="M478.44 203.01l-35.08-14.53-.04-3.66 35.09 14.52.03 3.67zM478.5 209.19l-35.08-14.53-.04-3.66 35.09 14.53.03 3.66z" class="cls-9"/><path d="M440.84 156.44l-17.5-7.25-.05-4.94 17.5 7.25.05 4.94zM500.55 181.16L443.4 157.5l-.05-4.94 57.15 23.66.05 4.94z" class="cls-12"/><path d="M520.12 195.94L423.4 155.9l-.03-3.83 96.71 40.05.04 3.82zM520.23 207.8l-96.71-40.05-.04-3.82 96.71 40.04.04 3.83zM481.6 185.9l-58.14-24.08-.04-3.82 58.14 24.07.04 3.83zM520.17 201.87l-35.96-14.89-.04-3.83 35.97 14.9.03 3.82z" class="cls-9"/><path d="M581.75 204.51l-42.14-17.45-.07-6.96 42.14 17.44.07 6.97z" class="cls-11"/><ellipse cx="548.11" cy="233.11" class="cls-9" rx="5.98" ry="9.05" transform="rotate(-35.72 548.072 233.107)"/><path d="M594.81 251.19l-35.08-14.53-.04-3.66 35.09 14.53.03 3.66zM594.87 257.37l-35.08-14.53-.04-3.66 35.09 14.53.03 3.66z" class="cls-9"/><path d="M571.34 210.47l-31.63-13.09-.05-4.95 31.63 13.1.05 4.94zM593.32 219.57l-19.42-8.04-.05-4.94 19.42 8.04.05 4.94zM615.29 228.67l-19.41-8.04-.05-4.94 19.42 8.04.04 4.94z" class="cls-12"/><path d="M566.21 215.02l-26.44-10.94-.03-3.83 26.43 10.95.04 3.82zM636.49 244.12l-45.21-18.71-.03-3.83 45.2 18.72.04 3.82zM636.6 255.98l-96.72-40.04-.03-3.83 96.71 40.05.04 3.82zM636.54 250.05l-96.71-40.04-.04-3.83 96.72 40.05.03 3.82z" class="cls-9"/><path d="M420.22 80.03L302.43 31.26l-.07-7.65 117.78 48.77.08 7.65z" class="cls-8"/><path d="M568.78 212.28l19.86 8.22.03 3.83-19.85-8.22-.04-3.83z" class="cls-9"/><path fill="url(#linear-gradient)" d="M618.81 70.27L473.49 10.1a3.59 3.59 0 00-3.21 0l-4.35 2.59 1.59 1.31 1.29-.36.37 37.87a8.27 8.27 0 004.82 6.93l143.39 59.37.59 3.5 4.52-2.69a3.26 3.26 0 001.5-3l-.36-38.36a8.3 8.3 0 00-4.83-6.99z"/><path d="M615.18 121l-146-60.44c-2.24-.93-4.08-3.91-4.11-6.67l-.36-37.63c0-2.76 1.77-4.24 4-3.31l146 60.44c2.24.93 4.08 3.91 4.11 6.67l.36 37.63c.05 2.76-1.75 4.24-4 3.31z" class="cls-8"/><path d="M614.87 121.23L469.55 61.06a8.3 8.3 0 01-4.78-7l-.37-38.36c0-2.75 2.08-4.11 4.68-3l145.33 60.19a8.29 8.29 0 014.77 7l.37 38.36c.03 2.75-2.07 4.06-4.68 2.98zM469.09 13.45c-2.22-.92-4 .24-4 2.59l.36 38.36a7.08 7.08 0 004.08 5.93l145.33 60.17c2.23.92 4-.24 4-2.59l-.37-38.36a7.06 7.06 0 00-4.08-5.93z" class="cls-14"/><path d="M510.56 71l-35.31-14.61c-2.4-1-4.37-4.19-4.4-7.13l-.06-6.09c0-3 1.9-4.53 4.3-3.54l35.31 14.63c2.4 1 4.37 4.18 4.4 7.12l.06 6.1c.02 2.94-1.86 4.52-4.3 3.52z" class="cls-12"/><path d="M559.8 91.4l-35.32-14.63c-2.4-1-4.36-4.18-4.39-7.13l-.09-6.09c0-2.94 1.89-4.52 4.29-3.53l35.32 14.62c2.4 1 4.36 4.19 4.39 7.13l.06 6.09c.06 2.95-1.86 4.53-4.26 3.54z" class="cls-9"/><path d="M556.64 83.58l-29.13-12.06-.03-3.69 29.12 12.06.04 3.69z" class="cls-12"/><path d="M609 111.78l-35.28-14.62c-2.4-1-4.37-4.19-4.4-7.13l-.06-6.09c0-3 1.9-4.53 4.3-3.54L608.87 95c2.4 1 4.37 4.18 4.4 7.13l.06 6.09c.02 2.97-1.9 4.56-4.33 3.56z" class="cls-9"/><path d="M605.87 103.97l-29.12-12.06-.03-3.69 29.12 12.06.03 3.69zM545.59 61.19l-74.92-31.02-.09-9.8 74.92 31.02.09 9.8z" class="cls-12"/><path d="M509.73 64.16l-25.35-10.5-.03-3.68 25.34 10.49.04 3.69z" class="cls-10"/><path fill="#363545" d="M477.47 51.15a.58.58 0 01-.24-.2l-1.52-2.13c-.14-.19-.15-.43 0-.52s.35 0 .49.19l1.26 1.76 2.75-2.25c.12-.1.34 0 .49.17s.16.42 0 .52l-3 2.4a.24.24 0 01-.25 0z"/><path fill="url(#linear-gradient-2)" d="M756.69 144.49L644.33 98a3.06 3.06 0 00-2.87.09l-4.35 2.59 1.59 1.29 1.19-.33.18 18.19c0 3 2.06 6.34 4.54 7.37l110.2 45.63.58 3.46 4.39-2.61h.08a4 4 0 001.5-3.49l-.18-18.22c.02-3.15-2.01-6.45-4.49-7.48z"/><path d="M752.59 176.33L640.2 129.8c-2.48-1-4.51-4.33-4.54-7.37l-.17-18.19c0-3 2-4.68 4.43-3.65l112.37 46.52c2.48 1 4.51 4.33 4.54 7.37l.17 18.22c0 3.03-1.94 4.65-4.41 3.63z" class="cls-7"/><path d="M726.38 149.29l-79.4-32.88-.06-5.99 79.4 32.87.06 6zM713.14 153.07l-66.07-27.36-.06-6 66.08 27.36.05 6z" class="cls-9"/><path d="M744.15 161.19a.54.54 0 01-.25-.21l-4.9-7.09c-.13-.2-.14-.44 0-.52s.35 0 .49.2l4.88 7.1c.13.2.14.43 0 .52a.25.25 0 01-.22 0z" class="cls-8"/><path d="M739.32 159.19a.54.54 0 01-.25-.21c-.14-.19-.14-.43 0-.51l4.78-3.1c.13-.09.35 0 .49.2s.14.43 0 .52l-4.78 3.1a.25.25 0 01-.24 0z" class="cls-8"/><path d="M691 357.16l-80-33.41a7.33 7.33 0 01-4.27-5.32c-.19-2 1.4-3 3.57-2.05l80 33.41a7.33 7.33 0 014.27 5.32c.15 2.04-1.45 2.96-3.57 2.05zM317 216.33l-80-33.41a7.33 7.33 0 01-4.27-5.32c-.19-2 1.4-3 3.57-2l80 33.41a7.35 7.35 0 014.27 5.32c.14 1.99-1.45 2.91-3.57 2zM692.87 224.13l-80-33.41a7.28 7.28 0 01-4.27-5.32c-.2-2 1.4-3 3.56-2.05l80 33.41a7.3 7.3 0 014.27 5.32c.2 2.04-1.43 2.92-3.56 2.05z" class="cls-3"/><path fill="url(#linear-gradient-3)" d="M801.23 294.31l-107.75-44.62a3.34 3.34 0 00-2.87 0l-4.61 2.76 1.7 1.37 1.1-.3v.07l1.2 128.73c0 3.25 2.2 6.77 4.84 7.87l105.52 43.69.61 3.61 4.57-2.72.15-.1.11-.06a4.34 4.34 0 001.53-3.7l-1.23-128.73c-.05-3.26-2.22-6.78-4.87-7.87z"/><path d="M797.87 437.6L690.12 393c-2.65-1.1-4.82-4.62-4.85-7.87L684 256.39c0-3.25 2.09-5 4.74-3.9l107.74 44.62c2.65 1.09 4.82 4.61 4.85 7.86l1.27 128.73c.03 3.3-2.09 5-4.73 3.9z" class="cls-8"/><path d="M794.77 343.89l-73.85-30.58-.06-6.4 73.85 30.58.06 6.4zM794.96 363.74l-73.85-30.57-.06-6.41 73.85 30.58.06 6.4zM769.91 343.48l-48.89-20.24-.06-6.41 48.89 20.25.06 6.4z" class="cls-9"/><path d="M794.87 353.82l-20.59-8.53-.06-6.4 20.58 8.52.07 6.41z" class="cls-3"/><path d="M746.2 356.95l48.89 20.24.06 6.41-48.89-20.25-.06-6.4zM721.24 346.62l20.59 8.52.06 6.4-20.59-8.52-.06-6.4z" class="cls-9"/><path d="M757.17 357.98l-35.96-14.89-.06-6.4 35.96 14.89.06 6.4z" class="cls-3"/><path d="M795.05 373.67l-33.51-13.88-.06-6.4 33.51 13.87.06 6.41z" class="cls-9"/><path d="M690.04 259.13l104.33 43.2.29 30.47-104.33-43.2-.29-30.47zM690.37 294.28l25.48 10.55.44 46.11-25.48-10.55-.44-46.11z" class="cls-12"/><path d="M802.25 396.39l-54-22.54c-.83-.35-1.49.2-1.48 1.21l.23 24.24a2.85 2.85 0 001.51 2.46l54 22.54z" class="cls-4"/><path d="M815.34 439l-80.64-33.4a2.83 2.83 0 01-1.52-2.45l-.18-24.24c0-1 .65-1.56 1.48-1.22l80.64 33.39a2.82 2.82 0 011.51 2.45l.24 24.24c-.04 1.02-.71 1.56-1.53 1.23z" class="cls-14"/><path d="M747.74 397l2.56 1v3.68a6.68 6.68 0 01-1.2-.19 9.33 9.33 0 01-1.25-.43 5.13 5.13 0 01-2.44-2 5.83 5.83 0 01-.89-3.14 2.61 2.61 0 01.94-2.38 2.86 2.86 0 012.65.1 7.63 7.63 0 012.07 1.3l-.39.83a5.76 5.76 0 00-1.7-1.11 1.73 1.73 0 00-1.75 0 2.06 2.06 0 00-.63 1.75 4.27 4.27 0 00.61 2.29 3.45 3.45 0 001.68 1.39 5.56 5.56 0 001.18.34v-1.89l-1.44-.59zM754.19 403.71a4.13 4.13 0 01-1.93-1.55 4.19 4.19 0 01-.71-2.37 2.28 2.28 0 01.62-1.87 1.67 1.67 0 011.76-.05 3.64 3.64 0 011.65 1.35 3.75 3.75 0 01.62 2.09v.69l-3.51-1.45a2.64 2.64 0 00.43 1.41 2.37 2.37 0 001.1.89 4.29 4.29 0 00.87.27 3.43 3.43 0 00.86 0v1a2.58 2.58 0 01-.83-.05 5.2 5.2 0 01-.93-.36zm-.26-4.94a.85.85 0 00-.85 0 1.15 1.15 0 00-.37.88l2.39 1a2.26 2.26 0 00-.32-1.17 1.77 1.77 0 00-.85-.71zM759.45 404.94a2.83 2.83 0 00.82.21v.85a1.81 1.81 0 01-.48 0 3.76 3.76 0 01-.6-.19 2.45 2.45 0 01-1.61-2.43v-3l-.72-.3v-.52l.76-.11.37-1 .69.28v1.24l1.49.62v.89l-1.5-.62v3a1.17 1.17 0 00.21.71 1.21 1.21 0 00.57.37zM768 407.34a1.18 1.18 0 01-.65 1.25 2.45 2.45 0 01-1.85-.21 6.33 6.33 0 01-1.93-1.18v-1.14a8.68 8.68 0 001 .79 6 6 0 001 .55 1.36 1.36 0 001 .14.58.58 0 00.32-.59 1.44 1.44 0 00-.31-.82 8.12 8.12 0 00-1.22-1.19 5.7 5.7 0 01-1.35-1.48 2.83 2.83 0 01-.4-1.42 1.15 1.15 0 01.6-1.19 2.19 2.19 0 011.66.16 7.47 7.47 0 012 1.29l-.35.83a6.64 6.64 0 00-1.66-1.1 1.09 1.09 0 00-.84-.09.54.54 0 00-.28.55 1.63 1.63 0 00.12.54 2.57 2.57 0 00.38.54 12.78 12.78 0 00.95.87 8.61 8.61 0 011.13 1.09 3.39 3.39 0 01.53.87 2.62 2.62 0 01.15.94zM771.17 409.79a2.68 2.68 0 00.82.21v.89a2.4 2.4 0 01-.48-.06 3.87 3.87 0 01-.61-.19 2.44 2.44 0 01-1.6-2.43v-3l-.72-.3v-.52l.77-.11.37-1 .69.29v1.23l1.5.62v.89l-1.5-.62v3a1.17 1.17 0 00.74 1.13zM776.34 412.78l-.23-.86a1.23 1.23 0 01-.76.38 2.45 2.45 0 01-1-.23 2.73 2.73 0 01-1.21-.94 2.53 2.53 0 01-.45-1.43c0-.58.19-.92.59-1.05a3.09 3.09 0 011.84.29l.91.34V409a1.66 1.66 0 00-.25-.89 1.51 1.51 0 00-.73-.56 2.66 2.66 0 00-.77-.2 4.33 4.33 0 00-.72 0l-.37-1a3 3 0 01.94 0 4.84 4.84 0 011 .27 3.64 3.64 0 011.52 1.09 2.68 2.68 0 01.52 1.67v3.74zm-1.67-1.49a1.12 1.12 0 001 0c.25-.14.36-.42.36-.86V410l-.68-.25a2 2 0 00-1.15-.19c-.23.06-.35.26-.35.61a1.14 1.14 0 00.22.66 1.4 1.4 0 00.6.46zM781.31 409.21a4.14 4.14 0 01.56.28l-.1 1.06a2.62 2.62 0 00-.49-.27 1.09 1.09 0 00-1.09 0 1.16 1.16 0 00-.4 1v2.9l-1.12-.46-.05-5.55.87.36.16 1h.06a1.19 1.19 0 01.67-.5 1.36 1.36 0 01.93.18zM784.85 415.46a2.81 2.81 0 00.82.2v.89a1.81 1.81 0 01-.48-.05 4.32 4.32 0 01-.61-.2 2.44 2.44 0 01-1.6-2.42v-3l-.72-.29v-.52l.74-.07.37-1 .69.29v1.24l1.5.62v.85l-1.5-.62v3a1.17 1.17 0 00.74 1.14zM789 418.14a4.24 4.24 0 01-1.93-1.55 4.32 4.32 0 01-.71-2.37 2.26 2.26 0 01.62-1.87 1.67 1.67 0 011.76-.05 3.67 3.67 0 012.27 3.44v.63l-3.51-1.45a2.73 2.73 0 00.43 1.42 2.44 2.44 0 001.1.89 4.94 4.94 0 00.87.26 3.44 3.44 0 00.86.05v1a2.92 2.92 0 01-.83-.05 5.74 5.74 0 01-.93-.35zm-.25-4.95a.87.87 0 00-.85 0 1.16 1.16 0 00-.38.88l2.39 1a2.3 2.3 0 00-.32-1.18 1.85 1.85 0 00-.81-.7zM794.12 420.25a3.15 3.15 0 01-1.54-1.39 4.73 4.73 0 01-.58-2.35 2.52 2.52 0 01.54-1.89 1.35 1.35 0 011.54-.12 3.13 3.13 0 011.59 1.46h.06a7.61 7.61 0 01-.09-1v-2l1.12.47.08 7.81-.88-.36-.2-.81a1.29 1.29 0 01-1.64.18zm.29-.83c.46.19.79.19 1 0a1.6 1.6 0 00.31-1.19v-.17a3.37 3.37 0 00-.34-1.62 2 2 0 00-1-.86.71.71 0 00-.9.12 2.08 2.08 0 00-.31 1.31 3.48 3.48 0 00.33 1.54 1.79 1.79 0 00.91.87zM800.58 420.21l1.65-.34-1.67-1.87v-.66l2.24 2.58v.41l-2.21.54z" class="cls-8"/><path d="M802.8 421.13l1.66-.34-1.68-1.86v-.66l2.24 2.58v.41l-2.2.54z" class="cls-8"/><path d="M797.87 437.6L768 425.44l-29.8-12.27-29.8-12.27-14.9-6.13-3.73-1.54a7.87 7.87 0 01-3-2.63 10.21 10.21 0 01-1.62-3.6 8.89 8.89 0 01-.23-2v-2l-.47-63.31-.24-31.65-.21-31.65.49 31.62.37 31.64.74 63.28v2a8.93 8.93 0 00.21 1.87 9.79 9.79 0 001.52 3.39 7.24 7.24 0 002.77 2.44l3.71 1.55 14.86 6.19 29.74 12.38 29.73 12.38z" class="cls-5"/><path fill="url(#linear-gradient-4)" d="M801.23 208.86l-107.75-44.61a3.36 3.36 0 00-2.88 0h-.05l-.18.1L686 167l1.7 1.38 1.1-.31v.07l.55 58.44c0 3.25 2.2 6.77 4.85 7.86l105.3 43.64.63 3.76 4.75-2.82a4.19 4.19 0 001.76-3.85l-.56-58.44c-.03-3.25-2.2-6.73-4.85-7.87z"/><path d="M797.2 281.87l-107.76-44.62c-2.64-1.09-4.81-4.61-4.84-7.86L684 171c0-3.25 2.09-5 4.74-3.9l107.75 44.61c2.64 1.1 4.81 4.62 4.84 7.86l.56 58.45c.11 3.2-2.05 4.98-4.69 3.85z" class="cls-8"/><path d="M765.22 228.1l-75.39-31.21-.06-6.41 75.39 31.22.06 6.4z" class="cls-9"/><path d="M794.23 240.12l-21.74-9.01-.06-6.4 21.74 9 .06 6.41z" class="cls-19"/><path d="M795.26 258.04l-21.75-9-.06-6.4 21.75 9 .06 6.4z" class="cls-20"/><path d="M766.25 246.03l-75.39-31.22-.07-6.4 75.39 31.22.07 6.4zM765.91 210.88l-75.39-31.21-.06-6.41 75.39 31.22.06 6.4z" class="cls-9"/><path d="M794.92 222.9l-21.74-9.01-.06-6.4 21.74 9 .06 6.41zM795.42 275.62l-21.74-9.01-.06-6.4 21.74 9 .06 6.41z" class="cls-14"/><path d="M766.41 263.6l-75.39-31.21-.06-6.41 75.39 31.22.06 6.4z" class="cls-9"/><path d="M797.2 281.87l-21.6-8.74-21.53-8.85L711 246.59l-21.47-9a8.16 8.16 0 01-4.1-3.94 9.73 9.73 0 01-.95-2.68 14 14 0 01-.18-2.88l-.08-11.43-.15-22.87L684 171l.41 22.84.29 22.85.14 11.42a13.3 13.3 0 00.19 2.78 9.48 9.48 0 00.92 2.55 7.65 7.65 0 003.86 3.68l21.53 8.85 42.94 17.92 21.47 9z" class="cls-5"/><path fill="url(#linear-gradient-5)" d="M263.27 51L163.09 9.47a4 4 0 00-3.51 0l-4.35 2.58 1.59 1.29L158 13l.22 23.4a9.08 9.08 0 005.24 7.62L262.17 85l.54 3.2 4.36-2.6a3.55 3.55 0 001.66-3.34l-.23-23.64a9.05 9.05 0 00-5.23-7.62z"/><path fill="url(#linear-gradient-6)" d="M159.52 160.34c0 3.31 2.24 6.89 4.94 8l98 40.59.58 3.48 4.51-2.68a4.26 4.26 0 001.78-3.92l-.53-55.9c0-3.31-2.24-6.9-4.94-8l-100.05-41.45a3.39 3.39 0 00-2.91 0l-4.36 2.54 1.59 1.29.87-.24v.36z"/><path fill="url(#linear-gradient-7)" d="M158.29 58.73l.22 23.43a9.08 9.08 0 005.24 7.62l98.65 40.85.55 3.29 4.45-2.65a3.57 3.57 0 001.66-3.34l-.23-23.64a9.08 9.08 0 00-5.24-7.62L163.42 55.19a4 4 0 00-3.43 0l-4.35 2.59 1.58 1.22z"/><path d="M259.87 133.66L159 91.89c-2.48-1-4.51-4.32-4.54-7.36l-.22-22.85c0-3 2-4.67 4.43-3.65L259.54 99.8c2.48 1 4.51 4.33 4.54 7.37l.22 22.83c.03 3.05-1.96 4.69-4.43 3.66z" class="cls-8"/><path d="M259.52 133.88L159.34 92.4a9.05 9.05 0 01-5.23-7.62l-.23-23.64c0-3 2.27-4.51 5.13-3.33l100.18 41.48a9.08 9.08 0 015.24 7.62l.22 23.65c.03 3.01-2.27 4.5-5.13 3.32zM159 58.54c-2.48-1-4.47.27-4.45 2.89l.23 23.64a7.84 7.84 0 004.54 6.6l100.17 41.48c2.48 1 4.47-.27 4.45-2.88l-.23-23.65a7.87 7.87 0 00-4.54-6.6z" class="cls-19"/><path d="M160.66 92.59l-1.67-.7c-2.48-1-4.51-4.32-4.54-7.36l-.22-22.85c0-3 2-4.67 4.43-3.65l1.68.7z" class="cls-19"/><path d="M160.75 92.71l-1.41-.58a8.59 8.59 0 01-5-7.24l-.23-23.64c0-2.87 2.16-4.29 4.88-3.16l1.41.58zM159 58.27c-2.62-1.08-4.73.28-4.71 3l.25 23.73a8.33 8.33 0 004.8 7l1.24.51-.33-33.68zM254.71 112.64l-88.84-36.78-.03-3.69 88.83 36.78.04 3.69zM223.4 107.4l-57.45-23.79-.04-3.69 57.46 23.79.03 3.69z" class="cls-19"/><path d="M259.54 87.94L158.66 46.17c-2.48-1-4.51-4.32-4.54-7.37L153.9 16c0-3 2-4.68 4.44-3.65l100.88 41.73c2.47 1 4.51 4.32 4.54 7.37l.24 22.84c0 3.04-2 4.71-4.46 3.65z" class="cls-8"/><path d="M259.19 88.16L159 46.68a9.08 9.08 0 01-5.24-7.62l-.23-23.64c0-3 2.28-4.51 5.14-3.33l100.19 41.48a9.08 9.08 0 015.24 7.62l.23 23.64c.02 3.02-2.28 4.51-5.14 3.33zm-100.5-75.34c-2.47-1-4.47.27-4.44 2.88l.22 23.65A7.89 7.89 0 00159 46l100.18 41.43c2.48 1 4.48-.27 4.45-2.88l-.22-23.65a7.87 7.87 0 00-4.54-6.6z" class="cls-20"/><path d="M160.34 46.86l-1.68-.69c-2.48-1-4.51-4.32-4.54-7.37L153.9 16c0-3 2-4.68 4.44-3.65L160 13z" class="cls-20"/><path d="M160.42 47l-1.4-.58a8.65 8.65 0 01-5-7.24l-.23-23.65c0-2.86 2.16-4.28 4.88-3.15l1.41.58zm-1.73-34.44c-2.62-1.09-4.73.28-4.7 3l.22 23.64a8.32 8.32 0 004.8 7l1.24.52-.32-33.68zM254.38 66.91l-88.83-36.78-.04-3.68 88.83 36.78.04 3.68zM223.08 61.68l-57.46-23.79-.03-3.69 57.45 23.79.04 3.69z" class="cls-20"/><path d="M260.15 212.41L160.05 171c-2.69-1.12-4.9-4.7-4.93-8l-.54-55.9c0-3.31 2.13-5.09 4.83-4l100.09 41.43c2.69 1.11 4.9 4.7 4.93 8l.54 55.9c.03 3.32-2.13 5.1-4.82 3.98z" class="cls-8"/><path d="M259.36 201.66l-83.11-34.41-.06-5.99 83.11 34.41.06 5.99z" class="cls-9"/><path d="M168.88 157.19a.07.07 0 010 .06l.08 8-7.57-3.14-.07-8 7.58 3.13m0-.73l-7.58-3.13a.48.48 0 00-.72.46l.08 8a1.27 1.27 0 00.73 1.07L169 166a.48.48 0 00.72-.47l-.07-8a1.31 1.31 0 00-.74-1.07z" class="cls-14"/><path d="M258.97 160.7l-83.11-34.41-.06-6 83.11 34.42.06 5.99z" class="cls-9"/><path d="M168.62 125.06l-7.68-3.19a1.27 1.27 0 01-.68-1.1l-.08-7.88c0-.46.3-.7.67-.55l7.68 3.18a1.29 1.29 0 01.69 1.11l.07 7.88c.01.49-.29.7-.67.55z" class="cls-14"/><path d="M164 120.57a.5.5 0 01-.24-.2l-1.52-2.12c-.14-.2-.15-.43 0-.52s.35 0 .49.19l1.26 1.75 2.77-2.21c.13-.1.34 0 .49.17s.16.43 0 .53l-3 2.4a.28.28 0 01-.24 0z" class="cls-8"/><path d="M259.23 187.96l-83.11-34.42-.06-5.99 83.11 34.41.06 6z" class="cls-9"/><path d="M168.88 152.36l-7.68-3.18a1.27 1.27 0 01-.68-1.11l-.08-7.87c0-.46.3-.71.67-.55l7.68 3.18a1.28 1.28 0 01.69 1.11l.07 7.88c.01.45-.29.7-.67.54z" class="cls-14"/><path d="M164.25 148.16a.64.64 0 01-.24-.2l-1.52-2.13c-.14-.19-.15-.43 0-.52s.35 0 .49.19l1.26 1.76 2.77-2.21c.13-.1.35 0 .49.17s.16.43 0 .52l-3 2.4a.23.23 0 01-.24 0z" class="cls-8"/><path d="M259.1 174.3l-83.11-34.41-.06-6 83.11 34.42.06 5.99z" class="cls-9"/><path d="M168.75 138.71l-7.68-3.18a1.28 1.28 0 01-.68-1.11l-.08-7.88c0-.45.3-.7.67-.55l7.68 3.19a1.28 1.28 0 01.69 1.1l.07 7.88c.01.46-.29.7-.67.55z" class="cls-14"/><path d="M164.12 134.5a.5.5 0 01-.24-.2l-1.52-2.12c-.14-.2-.15-.43 0-.52s.35 0 .49.18l1.26 1.76 2.77-2.21c.13-.1.35 0 .49.17a.4.4 0 010 .53l-3 2.4a.25.25 0 01-.24 0z" class="cls-8"/><path d="M260.15 212.41l-20.36-8.24-20.3-8.33-40.59-16.68-10.12-4.22-5.06-2.12-2.53-1-1.27-.53a6.62 6.62 0 01-1.22-.69 9.55 9.55 0 01-3.19-4.26 9.66 9.66 0 01-.64-2.62c-.06-.93 0-1.81-.05-2.71l-.07-10.78-.14-21.56v-21.56l.39 21.52.27 21.54.13 10.77c0 .89 0 1.82.06 2.67a9.19 9.19 0 00.62 2.49 9.09 9.09 0 003 4 5.37 5.37 0 001.12.63l1.27.52 2.54 1.05 5.07 2.08 10.15 4.17 40.48 16.89 20.29 8.43z" class="cls-5"/><path d="M644.09 371.05L506.29 314a2.82 2.82 0 01-1.5-2.43l-.7-73.6c0-1 .65-1.56 1.47-1.22l137.8 57.06a2.81 2.81 0 011.49 2.43l.71 73.61c.01 1-.65 1.53-1.47 1.2z" class="cls-8"/><path d="M552.63 268.78l-42.13-17.44-.07-6.97 42.14 17.45.06 6.96z" class="cls-10"/><path d="M600.26 299.44l-89.73-37.15-.04-4.94 89.72 37.15.05 4.94zM638.04 315.09l-35.22-14.59-.05-4.94L638 310.14l.04 4.95zM563.33 291.6l-52.72-21.83-.05-4.95 52.72 21.84.05 4.94zM638.12 322.56l-72.23-29.9-.05-4.94 72.23 29.9.05 4.94zM539.42 289.14l-28.74-11.9-.05-4.94 28.75 11.9.04 4.94zM638.19 330.04l-96.21-39.84-.05-4.94 96.21 39.84.05 4.94zM600.47 321.87l-89.72-37.15-.05-4.94 89.72 37.15.05 4.94z" class="cls-9"/><path d="M597.72 344.77l-50-20.68a.58.58 0 01-.35-.5l-.06-7c0-.2.15-.3.34-.22l49.95 20.68a.63.63 0 01.35.51l.06 7a.23.23 0 01-.29.21zm-49.61-21.26l49.26 20.39-.06-6.24-49.26-20.4z" class="cls-10"/><path d="M638.49 361.29l-36.01-14.91-.07-6.97 36.01 14.91.07 6.97z" class="cls-14"/><path d="M638.49 361.66l-36-14.91a.61.61 0 01-.35-.51l-.06-7c0-.2.15-.3.34-.22l36 14.91a.63.63 0 01.35.51l.06 7a.23.23 0 01-.34.22zm-35.67-15.5l35.32 14.62-.06-6.24-35.32-14.62z" class="cls-14"/><path d="M0 299.58l1.61-.82v.57a14.7 14.7 0 013.8-3.42l134.94-88.21c6.32-4.13 15.61-5.55 21.16-3.22l59.12 24.83a9.39 9.39 0 011.27.66l-.08-1 2.27.82.32 3.83v.07c.1 2.25-1.64 4.84-5.17 7.14L84.36 329c-6.32 4.14-15.61 5.55-21.15 3.22L4.08 307.43c-2.33-1-3.55-2.44-3.74-4.11z" class="cls-5"/><path d="M6.29 292.79c-5.45 3.56-6.4 8.15-1.29 10.28l59.09 24.83c5.08 2.1 13.41.65 18.91-2.9l134.89-88.21c5.44-3.57 6.39-8.15 1.32-10.28L160 201.66c-5.07-2.13-13.41-.64-18.86 2.92z" class="cls-6"/><path d="M5.17 292.32l134.89-88.21c6.32-4.13 15.61-5.54 21.15-3.22l59.13 24.83c5.54 2.33 4.93 7.39-1.39 11.52L84.06 325.45c-6.32 4.14-15.61 5.55-21.15 3.22L3.79 303.84c-5.55-2.33-4.94-7.39 1.38-11.52zm153.68-89.89c-4.29-1.8-11.57-.65-16.56 2.62L7.4 293.26c-5 3.27-5.55 7.24-1.26 9l59.13 24.83c4.29 1.8 11.57.66 16.57-2.61l134.88-88.21c5-3.27 5.55-7.24 1.26-9z" class="cls-5"/><path d="M14 292.68L81.48 321a.58.58 0 00.52 0l127.1-83.19c.14-.09.14-.21 0-.26l-67.47-28.34a.58.58 0 00-.49.07L14 292.41c-.12.09-.12.21 0 .27z" class="cls-7"/><path d="M56 270.43l57.73 24.24a5.7 5.7 0 004.74-.63l71.76-46.92c1.35-.88 1.41-2 .13-2.57l-57.72-24.24a5.76 5.76 0 00-4.75.63l-71.72 46.92c-1.35.88-1.41 2.03-.17 2.57zM21.65 292l59.42 25a3.63 3.63 0 003-.39l27.76-18.16c.86-.56.89-1.29.09-1.63l-59.41-25a3.64 3.64 0 00-3 .4l-27.77 18.16c-.86.56-.89 1.28-.09 1.62z" class="cls-8"/><path d="M104.06 236.55l62.33 26.18 23.68-15.49c1.45-1 1.52-2.18.14-2.76l-57.36-24.09a6.17 6.17 0 00-5.12.67z" class="cls-12"/><path d="M93.26 248.73l54.71 22.97 3.08-2.02-54.7-22.97-3.09 2.02zM83.69 254.99l54.7 22.97 3.09-2.02-54.7-22.97-3.09 2.02zM40.83 283.01l54.7 22.98 3.09-2.02L43.92 281l-3.09 2.01zM48.05 291.19l42.7 17.93 3.09-2.02-42.7-17.93-3.09 2.02zM36.05 286.14l9.9 4.16 3.08-2.02-9.9-4.15-3.08 2.01z" class="cls-9"/><path d="M68.79 288.77l32.32 13.57 5.05-3.3-32.32-13.57-5.05 3.3zM50 296.19l22.34 9.38-3.34 2.21-22.35-9.38zm21.76 9.46L50 296.5l-2.79 1.83L69 307.47z" class="cls-12"/><ellipse cx="126.69" cy="281.94" class="cls-12" rx="5.05" ry="2.63" transform="rotate(-11.54 126.76 282.039)"/><path d="M105.05 272.21l16.71 7.01 1.74-1.14-16.7-7.02-1.75 1.15z" class="cls-9"/><path d="M150.59 253.77l15.1 6.34 1.9-1.24-15.1-6.34-1.9 1.24z" class="cls-11"/><path d="M132.85 246.32l15.1 6.34 1.9-1.24-15.1-6.34-1.9 1.24zM115.11 238.87l15.1 6.34 1.9-1.24-15.1-6.34-1.9 1.24z" class="cls-10"/><path d="M102.1 274.14l16.71 7.01 1.74-1.14-16.71-7.02-1.74 1.15z" class="cls-9"/><ellipse cx="87.93" cy="276.11" class="cls-10" rx="5.05" ry="2.63" transform="rotate(-11.54 87.959 276.218)"/><path d="M66.29 266.37L83 273.39l1.74-1.15-16.71-7.01-1.74 1.14zM63.34 268.3l16.7 7.02 1.75-1.15-16.71-7.02-1.74 1.15z" class="cls-9"/><ellipse cx="97.66" cy="269.75" class="cls-9" rx="5.05" ry="2.63" transform="rotate(-11.54 97.7 269.855)"/><path d="M76.01 260.01l16.71 7.02 1.75-1.15-16.71-7.01-1.75 1.14zM73.06 261.94l16.71 7.02 1.75-1.15-16.71-7.01-1.75 1.14z" class="cls-9"/><path d="M115.83 251.38l38.5 16.16 5.04-3.3-38.49-16.16-5.05 3.3z" class="cls-12"/><path d="M130.78 216.06l67.94 28.54 10.39-6.8c.13-.08.14-.2 0-.25l-67.49-28.34a.53.53 0 00-.47.06z" class="cls-14"/><path d="M134.26 267.77l-42.7-17.93-3.09 2.02 42.7 17.93 3.09-2.02zM146.27 272.81l-9.9-4.16-3.09 2.02 9.9 4.16 3.09-2.02z" class="cls-9"/><path d="M28.92 290.8l15.91 6.68 3.09-2.02-15.91-6.68-3.09 2.02z" class="cls-14"/><path d="M32 288.63l16.18 6.79-3.38 2.22-16.18-6.8zm15.61 6.87L32 288.94l-2.79 1.82 15.63 6.57z" class="cls-14"/><path d="M644.11 218l-109.69-45.37-.3-31.12c0-1 .64-1.55 1.46-1.21l106.73 44.19a2.82 2.82 0 011.5 2.43z" class="cls-12"/><path d="M495.09 309.35L304.6 230.48a2.82 2.82 0 01-1.5-2.43l-.7-73.6c0-1 .65-1.56 1.47-1.22l190.49 78.87a2.83 2.83 0 011.49 2.43l.71 73.62c.01 1-.65 1.54-1.47 1.2z" class="cls-8"/><path d="M429.94 213.4l19.65 8.14.04 3.82-19.65-8.14-.04-3.82z" class="cls-10"/><path d="M430.08 227.29l19.65 8.14.03 3.82-19.65-8.13-.03-3.83zM430.21 240.88l19.65 8.14.03 3.82-19.65-8.13-.03-3.83zM430.34 254.78l19.65 8.13.03 3.83-19.64-8.14-.04-3.82z" class="cls-12"/><path d="M461.63 226.52l19.64 8.13.04 3.83-19.65-8.14-.03-3.82zM461.76 240.41l19.65 8.14.03 3.82-19.65-8.13-.03-3.83zM461.89 254l19.65 8.14.03 3.82-19.65-8.14-.03-3.82zM462.02 267.89l19.65 8.14.03 3.82-19.64-8.13-.04-3.83z" class="cls-10"/><path d="M452.24 277.68l29.56 12.24.06 5.76-29.56-12.24-.06-5.76z" class="cls-11"/><path d="M353.77 205.19l-45.12-18.68a1.76 1.76 0 01-.94-1.53l-.23-24.25c0-.63.4-1 .91-.76l45.13 18.69a1.77 1.77 0 01.94 1.52l.23 24.26c.01.62-.4.96-.92.75zM354.35 245.27l-20.13-8.33a1.41 1.41 0 01-.75-1.21l-.32-34.31c0-.5.32-.77.72-.6l20.13 8.34a1.39 1.39 0 01.74 1.2l.33 34.32c.01.49-.31.76-.72.59z" class="cls-12"/><path d="M366.58 187.17l19.65 8.13.04 3.83-19.65-8.14-.04-3.82z" class="cls-10"/><path d="M366.72 201.06l19.65 8.13.03 3.83-19.65-8.14-.03-3.82zM366.85 214.65l19.64 8.13.04 3.83-19.65-8.14-.03-3.82zM366.98 228.54l19.65 8.14.03 3.82-19.65-8.13-.03-3.83z" class="cls-12"/><path d="M398.26 200.28l19.65 8.14.04 3.82-19.65-8.13-.04-3.83z" class="cls-10"/><path d="M398.4 214.18l19.65 8.13.03 3.83-19.65-8.14-.03-3.82zM398.53 227.77l19.65 8.13.03 3.82-19.65-8.13-.03-3.82zM398.66 241.66l19.65 8.13.03 3.83-19.64-8.14-.04-3.82z" class="cls-12"/><path d="M329 234.76l-20.13-8.33a1.41 1.41 0 01-.75-1.21l-.32-34.31c0-.5.32-.77.72-.6l20.14 8.34a1.42 1.42 0 01.74 1.2l.33 34.32c-.03.5-.35.76-.73.59z" class="cls-10"/><path d="M195.91 235.34l6.22 2.88.92-.65-6.21-2.88-.93.65zM193.66 236.92l6.22 2.88.92-.65-6.21-2.88-.93.65zM191.42 238.5l6.21 2.88.93-.65-6.22-2.89-.92.66z" class="cls-8"/></g></g></g></svg>